<?xml version="1.0" encoding="UTF-8" ?>
<!DOCTYPE svg PUBLIC "-//W3C//DTD SVG 1.1//EN" "http://www.w3.org/Graphics/SVG/1.1/DTD/svg11.dtd">
<svg width="854pt" height="640pt" viewBox="0 0 854 640" version="1.1" xmlns="http://www.w3.org/2000/svg">
<g id="#ffffffff">
</g>
<g id="#000000ff">
<path fill="#000000" opacity="1.00" d=" M 466.29 149.39 C 471.41 148.51 476.76 149.21 481.97 149.10 C 482.19 151.92 481.65 154.86 482.37 157.61 C 486.96 158.25 491.61 158.66 496.23 159.24 C 497.39 156.14 498.21 152.94 499.16 149.78 C 504.08 150.41 508.95 151.63 513.64 153.23 C 514.35 156.83 511.86 160.54 511.23 164.15 C 515.11 165.71 519.07 167.07 523.03 168.43 C 524.63 165.16 526.04 161.80 527.58 158.50 C 531.78 160.55 535.88 162.82 539.78 165.40 C 538.20 168.76 536.62 172.11 535.03 175.46 C 538.95 177.87 542.34 181.16 546.55 183.08 C 548.86 180.52 551.20 177.96 553.90 175.79 C 557.60 178.86 560.74 182.52 564.15 185.90 C 561.61 188.69 559.08 191.50 556.60 194.34 C 559.15 197.92 561.62 201.56 563.79 205.39 C 567.28 203.56 570.64 201.48 574.16 199.71 C 576.92 204.38 579.29 209.31 581.06 214.44 C 577.96 216.15 574.78 217.69 571.58 219.19 C 572.52 222.60 573.50 226.01 574.24 229.47 C 577.76 228.83 581.23 227.99 584.71 227.17 C 586.91 231.91 587.31 237.36 587.62 242.54 C 584.41 243.13 581.16 243.43 577.96 244.03 C 578.68 248.50 578.59 253.07 579.51 257.52 C 582.48 257.49 585.45 257.49 588.42 257.52 C 588.52 262.16 589.14 266.95 587.82 271.48 C 584.92 271.50 582.03 271.50 579.15 271.50 C 578.10 275.41 577.58 279.46 576.29 283.31 C 579.64 284.03 583.06 284.43 586.33 285.53 C 585.18 290.11 584.08 294.80 581.63 298.90 C 578.64 297.73 575.57 296.77 572.44 296.08 C 570.55 300.40 568.45 304.61 566.40 308.86 C 569.27 310.33 572.19 311.72 574.97 313.39 C 573.53 318.26 570.15 322.15 567.55 326.42 C 564.74 325.03 561.94 323.61 559.13 322.22 C 556.89 325.63 554.66 329.05 552.56 332.56 C 554.88 334.25 557.24 335.91 559.32 337.91 C 556.31 341.74 553.16 345.47 549.40 348.61 C 547.14 346.36 544.87 344.14 542.67 341.83 C 539.41 344.60 536.12 347.36 532.67 349.89 C 534.54 352.67 536.46 355.42 538.45 358.13 C 534.36 361.02 529.61 362.72 525.06 364.70 C 513.11 353.91 500.61 343.77 488.97 332.64 C 499.06 331.45 507.24 324.75 514.35 318.00 C 512.04 315.79 509.70 313.60 507.57 311.22 C 515.03 303.58 522.02 295.51 529.16 287.59 C 531.55 289.78 534.07 291.82 536.43 294.05 C 541.18 287.68 542.64 279.56 543.79 271.88 C 544.57 262.09 544.27 252.08 541.71 242.56 C 539.71 237.24 536.55 232.20 532.17 228.53 C 528.47 232.80 524.63 236.95 520.76 241.06 C 522.13 246.68 524.84 252.10 524.51 258.03 C 524.51 267.75 523.35 278.66 516.05 285.85 C 510.69 281.38 505.85 276.33 500.51 271.84 C 501.77 267.33 502.70 262.66 502.59 257.95 C 501.18 244.75 488.90 234.48 475.98 233.55 C 471.18 233.96 466.34 234.88 462.04 237.14 C 456.81 232.09 451.34 227.30 445.76 222.65 C 449.13 218.68 453.06 214.95 458.00 213.04 C 465.62 210.19 474.13 209.01 482.02 211.55 C 486.48 206.61 490.92 201.65 495.40 196.74 C 486.95 190.50 475.92 190.86 465.99 191.87 C 455.64 193.69 444.54 196.37 437.17 204.42 C 439.84 206.70 442.34 209.17 445.13 211.31 C 438.22 219.19 431.12 226.92 424.10 234.70 C 420.99 232.14 418.15 229.30 415.06 226.74 C 411.35 236.15 409.29 246.21 409.14 256.33 C 406.12 254.23 403.72 251.44 401.13 248.87 C 393.83 241.69 386.61 234.43 379.39 227.16 C 383.16 215.01 386.86 202.57 394.33 192.08 C 392.16 190.35 390.06 188.53 388.34 186.34 C 391.12 183.30 394.09 180.44 396.90 177.42 C 399.18 178.96 401.22 180.81 403.12 182.79 C 407.42 180.25 410.55 176.27 414.39 173.15 C 413.27 171.13 412.15 169.11 411.02 167.10 C 414.70 164.84 418.01 161.98 421.88 160.05 C 423.97 161.95 424.92 164.85 426.56 167.14 C 431.11 164.97 435.54 162.53 440.34 160.94 C 439.85 158.81 439.31 156.70 438.78 154.58 C 443.36 153.17 448.03 152.02 452.76 151.23 C 454.32 153.17 454.57 155.69 455.07 158.03 C 458.67 157.19 462.35 156.85 466.04 156.86 C 466.10 154.37 465.81 151.84 466.29 149.39 Z" />
<path fill="#000000" opacity="1.00" d=" M 313.00 222.58 C 324.04 222.64 335.06 221.89 346.11 221.95 C 347.50 221.61 348.29 222.95 349.16 223.76 C 362.69 238.54 376.33 253.23 389.99 267.89 C 396.72 275.47 404.42 282.09 411.95 288.86 C 416.51 283.95 421.15 279.09 425.46 273.94 C 423.61 261.52 424.77 247.54 432.52 237.20 C 437.93 242.36 443.54 247.31 448.71 252.71 C 446.52 260.33 445.06 269.24 449.56 276.33 C 453.54 283.51 460.80 288.86 468.99 290.01 C 475.07 291.14 481.23 289.62 487.06 287.90 C 492.07 292.16 497.05 296.48 501.53 301.31 C 499.26 304.17 496.04 306.01 492.92 307.79 C 484.39 311.10 475.00 313.40 465.86 311.52 C 463.95 311.22 462.11 310.39 460.18 310.49 C 456.29 314.21 453.11 318.59 449.42 322.50 C 499.31 364.97 549.34 407.28 599.29 449.68 C 601.60 451.67 604.13 453.45 606.00 455.90 C 578.90 456.15 551.78 456.18 524.69 455.45 C 514.16 454.88 503.60 455.30 493.08 454.82 C 491.39 453.94 490.40 452.20 489.13 450.85 C 473.87 432.81 458.23 415.11 442.75 397.26 C 435.12 388.76 427.99 379.78 420.05 371.58 C 419.02 382.69 419.71 393.91 419.46 405.06 C 418.86 421.68 419.09 438.33 418.83 454.96 C 409.29 456.09 399.61 455.86 390.00 456.09 C 379.33 456.66 368.64 457.00 357.95 457.09 C 351.20 457.55 344.43 457.64 337.68 457.39 C 347.65 408.29 357.12 359.07 366.72 309.90 C 341.77 280.90 316.21 252.43 290.93 223.73 C 298.19 222.27 305.66 223.47 313.00 222.58 Z" />
</g>
</svg>
